<svg xmlns="http://www.w3.org/2000/svg" width="503.878" height="477.877" viewBox="0 0 503.878 477.877">
  <g id="Grupo_28" data-name="Grupo 28" transform="translate(-77.466 -95.443)">
    <g id="Grupo_3" data-name="Grupo 3" transform="translate(103.643 95.443)">
      <g id="Grupo_2" data-name="Grupo 2">
        <circle id="Elipse_2" data-name="Elipse 2" cx="77.561" cy="77.561" r="77.561" transform="translate(0 169.637)" fill="#a2d2db"/>
        <circle id="Elipse_3" data-name="Elipse 3" cx="95.699" cy="95.699" r="95.699" transform="translate(286.302 133.36)" fill="#a2d2db"/>
        <circle id="Elipse_4" data-name="Elipse 4" cx="134.519" cy="134.519" r="134.519" transform="translate(28.009 190.239) rotate(-45)" fill="#a2d2db"/>
        <rect id="Rectángulo_1" data-name="Rectángulo 1" width="307.944" height="129.365" transform="translate(74.057 195.393)" fill="#a2d2db"/>
      </g>
    </g>
    <g id="Grupo_4" data-name="Grupo 4" transform="translate(77.716 258.694)">
      <rect id="Rectángulo_2" data-name="Rectángulo 2" width="110.729" height="110.729" transform="translate(0 0)" fill="none" stroke="#2e2e2e" stroke-miterlimit="10" stroke-width="0.5" stroke-dasharray="5"/>
      <path id="Trazado_302" data-name="Trazado 302" d="M207.847,320.358H97.118L96.03,208.83H206.759Z" transform="translate(-65.428 -182.623)" fill="none" stroke="#2e2e2e" stroke-miterlimit="10" stroke-width="0.5" stroke-dasharray="5"/>
      <line id="Línea_1" data-name="Línea 1" x1="31.69" y1="27.006" transform="translate(110.729 110.729)" fill="none" stroke="#2e2e2e" stroke-miterlimit="10" stroke-width="0.5" stroke-dasharray="5"/>
      <line id="Línea_2" data-name="Línea 2" x1="31.69" y1="27.006" transform="translate(0 0.528)" fill="none" stroke="#2e2e2e" stroke-miterlimit="10" stroke-width="0.5" stroke-dasharray="5"/>
      <line id="Línea_3" data-name="Línea 3" x1="31.69" y1="27.006" transform="translate(110.729 0.528)" fill="none" stroke="#2e2e2e" stroke-miterlimit="10" stroke-width="0.5" stroke-dasharray="5"/>
      <line id="Línea_4" data-name="Línea 4" x1="31.69" y1="27.006" transform="translate(0 110.729)" fill="none" stroke="#2e2e2e" stroke-miterlimit="10" stroke-width="0.5" stroke-dasharray="5"/>
    </g>
    <g id="Grupo_5" data-name="Grupo 5" transform="translate(427.362 380.625)">
      <rect id="Rectángulo_3" data-name="Rectángulo 3" width="118.834" height="118.834" fill="none" stroke="#2e2e2e" stroke-miterlimit="10" stroke-width="0.5" stroke-dasharray="5"/>
      <path id="Trazado_303" data-name="Trazado 303" d="M426.628,402.643H307.794l-1.167-119.692H425.461Z" transform="translate(-273.785 -254.826)" fill="none" stroke="#2e2e2e" stroke-miterlimit="10" stroke-width="0.5" stroke-dasharray="5"/>
      <line id="Línea_5" data-name="Línea 5" x1="34.009" y1="28.983" transform="translate(118.834 118.834)" fill="none" stroke="#2e2e2e" stroke-miterlimit="10" stroke-width="0.5" stroke-dasharray="5"/>
      <line id="Línea_6" data-name="Línea 6" x1="34.009" y1="28.983" transform="translate(0 0.567)" fill="none" stroke="#2e2e2e" stroke-miterlimit="10" stroke-width="0.5" stroke-dasharray="5"/>
      <line id="Línea_7" data-name="Línea 7" x1="34.009" y1="28.983" transform="translate(118.834 0.567)" fill="none" stroke="#2e2e2e" stroke-miterlimit="10" stroke-width="0.5" stroke-dasharray="5"/>
      <line id="Línea_8" data-name="Línea 8" x1="34.009" y1="28.983" transform="translate(0 118.834)" fill="none" stroke="#2e2e2e" stroke-miterlimit="10" stroke-width="0.5" stroke-dasharray="5"/>
    </g>
    <g id="Grupo_7" data-name="Grupo 7" transform="translate(106.055 428.797)">
      <path id="Trazado_304" data-name="Trazado 304" d="M399.13,356.668H98.449v-61.72H399.13a30.86,30.86,0,0,1,30.86,30.86h0A30.86,30.86,0,0,1,399.13,356.668Z" transform="translate(-92.145 -294.948)" fill="#d5dae6"/>
      <path id="Trazado_305" data-name="Trazado 305" d="M94.676,294.948H394.792c18.509,0,33.513,13.457,33.513,30.058v1.6c0,16.6-15,30.058-33.513,30.058H94.676" transform="translate(-94.676 -294.948)" fill="none" stroke="#a62929" stroke-linecap="round" stroke-miterlimit="10" stroke-width="8"/>
      <path id="Trazado_306" data-name="Trazado 306" d="M414.631,356.668H113.948v-61.72H414.631a30.86,30.86,0,0,1,30.86,30.86h0A30.86,30.86,0,0,1,414.631,356.668Z" transform="translate(-81.746 -294.948)" fill="#ebf0fd"/>
      <g id="Grupo_6" data-name="Grupo 6" transform="translate(6.304 15.494)">
        <line id="Línea_9" data-name="Línea 9" x2="352.431" opacity="0.18" stroke="#4a4a4a" stroke-linecap="round" stroke-miterlimit="10" stroke-width="2" fill="none"/>
        <line id="Línea_10" data-name="Línea 10" x2="360.411" transform="translate(0 10.898)" fill="none" stroke="#4a4a4a" stroke-linecap="round" stroke-miterlimit="10" stroke-width="2" opacity="0.18"/>
        <line id="Línea_11" data-name="Línea 11" x2="360.411" transform="translate(0 21.796)" fill="none" stroke="#4a4a4a" stroke-linecap="round" stroke-miterlimit="10" stroke-width="2" opacity="0.18"/>
        <line id="Línea_12" data-name="Línea 12" x2="354.027" transform="translate(0 32.694)" fill="none" stroke="#4a4a4a" stroke-linecap="round" stroke-miterlimit="10" stroke-width="2" opacity="0.18"/>
      </g>
      <path id="Trazado_307" data-name="Trazado 307" d="M303.962,295.238v60.751c8.186-2.47,14.368-13.65,14.368-27.085v-6.58C318.33,308.888,312.148,297.706,303.962,295.238Z" transform="translate(45.735 -294.753)" fill="#2e2e2e"/>
      <path id="Trazado_308" data-name="Trazado 308" d="M112.7,294.948H412.815c18.509,0,33.513,13.457,33.513,30.058v1.6c0,16.6-15,30.058-33.513,30.058H112.7" transform="translate(-82.584 -294.948)" fill="none" stroke="#d64d4d" stroke-linecap="round" stroke-miterlimit="10" stroke-width="8"/>
    </g>
    <g id="Grupo_9" data-name="Grupo 9" transform="translate(164.416 350.309)">
      <path id="Trazado_309" data-name="Trazado 309" d="M179.262,313.29H451.008V250.773H179.262A31.259,31.259,0,0,0,148,282.031h0A31.26,31.26,0,0,0,179.262,313.29Z" transform="translate(-117.26 -246.097)" fill="#d5dae6"/>
      <path id="Trazado_310" data-name="Trazado 310" d="M457.155,247.975H182.311c-22.363,0-40.493,15.023-40.493,33.555v1.791c0,18.532,18.129,33.557,40.493,33.557H457.155" transform="translate(-121.41 -247.974)" fill="none" stroke="#a7ad26" stroke-linecap="round" stroke-miterlimit="10" stroke-width="6"/>
      <path id="Rectángulo_4" data-name="Rectángulo 4" d="M0,0H283.131A19.873,19.873,0,0,1,303,19.873V49.031A19.873,19.873,0,0,1,283.131,68.9H0a0,0,0,0,1,0,0V0A0,0,0,0,1,0,0Z" transform="translate(304.074 68.904) rotate(180)" fill="#ebf0fd"/>
      <g id="Grupo_8" data-name="Grupo 8" transform="translate(2.567 13.356)">
        <line id="Línea_13" data-name="Línea 13" x2="326.708" transform="translate(6.471)" fill="none" stroke="#4a4a4a" stroke-linecap="round" stroke-miterlimit="10" stroke-width="2" opacity="0.18"/>
        <line id="Línea_14" data-name="Línea 14" x2="333.178" transform="translate(0 14.161)" fill="none" stroke="#4a4a4a" stroke-linecap="round" stroke-miterlimit="10" stroke-width="2" opacity="0.18"/>
        <line id="Línea_15" data-name="Línea 15" x2="331.561" transform="translate(1.618 28.321)" fill="none" stroke="#4a4a4a" stroke-linecap="round" stroke-miterlimit="10" stroke-width="2" opacity="0.18"/>
        <line id="Línea_16" data-name="Línea 16" x2="326.708" transform="translate(6.471 42.482)" fill="none" stroke="#4a4a4a" stroke-linecap="round" stroke-miterlimit="10" stroke-width="2" opacity="0.18"/>
      </g>
      <path id="Trazado_311" data-name="Trazado 311" d="M144.737,254.608v47.9c-8.622-1.947-15.133-10.762-15.133-21.356v-5.188C129.6,265.37,136.116,256.555,144.737,254.608Z" transform="translate(-129.604 -243.524)" fill="#2e2e2e"/>
      <path id="Trazado_312" data-name="Trazado 312" d="M439.238,247.975H169.923c-21.914,0-39.679,15.023-39.679,33.555v1.791c0,18.532,17.765,33.557,39.679,33.557H439.238" transform="translate(-129.175 -247.974)" fill="none" stroke="#cbd152" stroke-miterlimit="10" stroke-width="6"/>
    </g>
    <g id="Grupo_11" data-name="Grupo 11" transform="translate(145.542 501.417)">
      <path id="Trazado_313" data-name="Trazado 313" d="M167.326,403.725H439.072V341.208H167.326a31.257,31.257,0,0,0-31.258,31.258h0A31.258,31.258,0,0,0,167.326,403.725Z" transform="translate(-106.394 -336.532)" fill="#d5dae6"/>
      <path id="Trazado_314" data-name="Trazado 314" d="M445.219,338.41H170.376c-22.363,0-40.494,15.023-40.494,33.555v1.791c0,18.532,18.131,33.557,40.494,33.557H445.219" transform="translate(-110.544 -338.409)" fill="none" stroke="#83b1b7" stroke-linecap="round" stroke-miterlimit="10" stroke-width="6"/>
      <path id="Rectángulo_5" data-name="Rectángulo 5" d="M0,0H283.131A19.873,19.873,0,0,1,303,19.873V49.03A19.873,19.873,0,0,1,283.131,68.9H0a0,0,0,0,1,0,0V0A0,0,0,0,1,0,0Z" transform="translate(303.004 68.903) rotate(180)" fill="#ebf0fd"/>
      <g id="Grupo_10" data-name="Grupo 10" transform="translate(1.497 13.356)">
        <line id="Línea_17" data-name="Línea 17" x2="326.708" transform="translate(6.471)" fill="none" stroke="#4a4a4a" stroke-linecap="round" stroke-miterlimit="10" stroke-width="2" opacity="0.18"/>
        <line id="Línea_18" data-name="Línea 18" x2="333.178" transform="translate(0 14.161)" fill="none" stroke="#4a4a4a" stroke-linecap="round" stroke-miterlimit="10" stroke-width="2" opacity="0.18"/>
        <line id="Línea_19" data-name="Línea 19" x2="331.561" transform="translate(1.618 28.321)" fill="none" stroke="#4a4a4a" stroke-linecap="round" stroke-miterlimit="10" stroke-width="2" opacity="0.18"/>
        <line id="Línea_20" data-name="Línea 20" x2="326.708" transform="translate(6.471 42.482)" fill="none" stroke="#4a4a4a" stroke-linecap="round" stroke-miterlimit="10" stroke-width="2" opacity="0.18"/>
      </g>
      <path id="Trazado_315" data-name="Trazado 315" d="M131.479,342.2c-7.795,4.47-13.17,13.907-13.17,24.836v6.58c0,10.931,5.375,20.368,13.17,24.836Z" transform="translate(-118.308 -335.87)" fill="#2e2e2e"/>
      <path id="Trazado_316" data-name="Trazado 316" d="M427.3,338.41H157.986c-21.914,0-39.677,15.023-39.677,33.555v1.791c0,18.532,17.763,33.557,39.677,33.557H427.3" transform="translate(-118.308 -338.409)" fill="none" stroke="#a2d2db" stroke-miterlimit="10" stroke-width="6"/>
    </g>
    <g id="Grupo_13" data-name="Grupo 13" transform="translate(307.987 202.704)">
      <g id="Grupo_12" data-name="Grupo 12">
        <rect id="Rectángulo_6" data-name="Rectángulo 6" width="46.531" height="67.213" transform="translate(57.906 94.673) rotate(180)" fill="#79a7ad"/>
        <path id="Trazado_317" data-name="Trazado 317" d="M250.168,159.636l36.607,36.941H215.528Z" transform="translate(-215.528 -159.636)" fill="#79a7ad"/>
      </g>
    </g>
    <g id="Grupo_17" data-name="Grupo 17" transform="translate(142.872 202.816)">
      <g id="Grupo_14" data-name="Grupo 14" transform="translate(27.066)">
        <line id="Línea_21" data-name="Línea 21" x2="12.106" y2="14.442" fill="none" stroke="#2e2e2e" stroke-miterlimit="10" stroke-width="1"/>
        <line id="Línea_22" data-name="Línea 22" x1="12.106" y2="14.442" fill="none" stroke="#2e2e2e" stroke-miterlimit="10" stroke-width="1"/>
      </g>
      <g id="Grupo_15" data-name="Grupo 15" transform="translate(42.963)">
        <line id="Línea_23" data-name="Línea 23" x2="12.106" y2="14.442" fill="none" stroke="#2e2e2e" stroke-miterlimit="10" stroke-width="1"/>
        <line id="Línea_24" data-name="Línea 24" x1="12.106" y2="14.442" fill="none" stroke="#2e2e2e" stroke-miterlimit="10" stroke-width="1"/>
      </g>
      <g id="Grupo_16" data-name="Grupo 16" transform="translate(93.463)">
        <line id="Línea_25" data-name="Línea 25" x2="12.106" y2="14.442" fill="none" stroke="#2e2e2e" stroke-miterlimit="10" stroke-width="1"/>
        <line id="Línea_26" data-name="Línea 26" x1="12.106" y2="14.442" fill="none" stroke="#2e2e2e" stroke-miterlimit="10" stroke-width="1"/>
      </g>
      <path id="Trazado_318" data-name="Trazado 318" d="M174.4,166.924c0,3.988-2.71,7.222-6.054,7.222s-6.052-3.233-6.052-7.222,2.71-7.22,6.052-7.22S174.4,162.937,174.4,166.924Z" transform="translate(-86.129 -159.703)" fill="none" stroke="#2e2e2e" stroke-miterlimit="10" stroke-width="1"/>
      <path id="Trazado_319" data-name="Trazado 319" d="M128.817,166.924c0,3.988-2.71,7.222-6.054,7.222s-6.054-3.233-6.054-7.222,2.71-7.22,6.054-7.22S128.817,162.937,128.817,166.924Z" transform="translate(-116.71 -159.703)" fill="none" stroke="#2e2e2e" stroke-miterlimit="10" stroke-width="1"/>
    </g>
    <g id="Grupo_18" data-name="Grupo 18" transform="translate(492.009 461.376)">
      <path id="Trazado_320" data-name="Trazado 320" d="M337.767,321.668c0,3.987-2.71,7.22-6.054,7.22s-6.052-3.233-6.052-7.22,2.71-7.222,6.052-7.222S337.767,317.679,337.767,321.668Z" transform="translate(-325.661 -314.446)" fill="none" stroke="#2e2e2e" stroke-miterlimit="10" stroke-width="1"/>
      <path id="Trazado_321" data-name="Trazado 321" d="M347.4,321.668c0,3.987-2.71,7.22-6.054,7.22s-6.054-3.233-6.054-7.22,2.71-7.222,6.054-7.222S347.4,317.679,347.4,321.668Z" transform="translate(-319.201 -314.446)" fill="none" stroke="#2e2e2e" stroke-miterlimit="10" stroke-width="1"/>
    </g>
    <line id="Línea_27" data-name="Línea 27" y2="63.554" transform="translate(546.196 311.96)" fill="none" stroke="#2e2e2e" stroke-miterlimit="10" stroke-width="0.5" stroke-dasharray="5"/>
    <g id="Grupo_19" data-name="Grupo 19" transform="translate(194.815 188.51)">
      <path id="Trazado_322" data-name="Trazado 322" d="M430.363,305.156c.1-.239.149-148.457.149-148.457,0-3.069-2.2-5.557-4.916-5.557H177.864c-2.715,0-4.917,2.488-4.917,5.557V305.156Z" transform="translate(-130.924 -151.142)" fill="#2e2e2e"/>
      <path id="Rectángulo_7" data-name="Rectángulo 7" d="M2.922,0H243.277A2.922,2.922,0,0,1,246.2,2.922v145.47a0,0,0,0,1,0,0H0a0,0,0,0,1,0,0V2.922A2.922,2.922,0,0,1,2.922,0Z" transform="translate(47.923 5.49)" fill="#fff"/>
      <path id="Trazado_323" data-name="Trazado 323" d="M458.233,249.505H153.344a5.547,5.547,0,0,1-5.547-5.547h0a5.546,5.546,0,0,1,5.547-5.546H457.967a5.68,5.68,0,0,1,5.679,5.679h0A5.415,5.415,0,0,1,458.233,249.505Z" transform="translate(-147.797 -92.592)" fill="#2e2e2e"/>
      <path id="Trazado_324" data-name="Trazado 324" d="M251.541,153.565a1.622,1.622,0,1,1-1.622-1.622A1.623,1.623,0,0,1,251.541,153.565Z" transform="translate(-80.372 -150.605)"/>
    </g>
    <g id="Grupo_20" data-name="Grupo 20" transform="translate(295.969 111.57)">
      <rect id="Rectángulo_8" data-name="Rectángulo 8" width="27.294" height="49.392" transform="translate(33.965 67.414) rotate(180)" fill="#79a7ad"/>
      <path id="Trazado_325" data-name="Trazado 325" d="M228.654,105.095l21.472,24.615H208.335Z" transform="translate(-208.335 -105.095)" fill="#79a7ad"/>
    </g>
    <rect id="Rectángulo_9" data-name="Rectángulo 9" width="207.616" height="16.407" transform="translate(260.874 298.895)" fill="#a2d2db" opacity="0.65"/>
    <g id="Grupo_21" data-name="Grupo 21" transform="translate(265.469 229.531)">
      <path id="Trazado_326" data-name="Trazado 326" d="M190.082,186.385l6.965,30.7,12.364-41.4h43.822v10.693" transform="translate(-190.082 -175.692)" fill="none" stroke="#2e2e2e" stroke-miterlimit="10" stroke-width="0.5" stroke-dasharray="5"/>
      <path id="Trazado_327" data-name="Trazado 327" d="M230.866,184.923a16.2,16.2,0,0,0-18.941,26.265Z" transform="translate(-179.673 -171.361)" fill="#2e2e2e"/>
      <path id="Trazado_328" data-name="Trazado 328" d="M225.852,185.7a13.888,13.888,0,0,1-16.24,22.517Z" transform="translate(-176.979 -168.981)" fill="#d64d4d"/>
    </g>
    <g id="Grupo_25" data-name="Grupo 25" transform="translate(343.113 298.894)">
      <g id="Grupo_22" data-name="Grupo 22" transform="translate(30.749 0.001)">
        <line id="Línea_28" data-name="Línea 28" x2="13.753" y2="16.407" fill="none" stroke="#d64d4d" stroke-linecap="round" stroke-miterlimit="10" stroke-width="1"/>
        <line id="Línea_29" data-name="Línea 29" x1="13.753" y2="16.407" fill="none" stroke="#d64d4d" stroke-linecap="round" stroke-miterlimit="10" stroke-width="1"/>
      </g>
      <g id="Grupo_23" data-name="Grupo 23" transform="translate(48.807 0.001)">
        <line id="Línea_30" data-name="Línea 30" x2="13.753" y2="16.407" fill="none" stroke="#d64d4d" stroke-linecap="round" stroke-miterlimit="10" stroke-width="1"/>
        <line id="Línea_31" data-name="Línea 31" x1="13.753" y2="16.407" fill="none" stroke="#d64d4d" stroke-linecap="round" stroke-miterlimit="10" stroke-width="1"/>
      </g>
      <g id="Grupo_24" data-name="Grupo 24" transform="translate(106.178 0.001)">
        <line id="Línea_32" data-name="Línea 32" x2="13.753" y2="16.407" fill="none" stroke="#d64d4d" stroke-linecap="round" stroke-miterlimit="10" stroke-width="1"/>
        <line id="Línea_33" data-name="Línea 33" x1="13.753" y2="16.407" fill="none" stroke="#d64d4d" stroke-linecap="round" stroke-miterlimit="10" stroke-width="1"/>
      </g>
      <path id="Trazado_329" data-name="Trazado 329" d="M302.085,225.408c0,4.532-3.079,8.2-6.877,8.2s-6.876-3.673-6.876-8.2,3.078-8.2,6.876-8.2S302.085,220.878,302.085,225.408Z" transform="translate(-201.809 -217.204)" fill="none" stroke="#d64d4d" stroke-linecap="round" stroke-miterlimit="10" stroke-width="1"/>
      <path id="Trazado_330" data-name="Trazado 330" d="M250.3,225.408c0,4.532-3.078,8.2-6.876,8.2s-6.877-3.673-6.877-8.2,3.079-8.2,6.877-8.2S250.3,220.878,250.3,225.408Z" transform="translate(-236.55 -217.204)" fill="none" stroke="#d64d4d" stroke-linecap="round" stroke-miterlimit="10" stroke-width="1"/>
    </g>
    <g id="Grupo_26" data-name="Grupo 26" transform="translate(353.925 135.823)">
      <path id="Trazado_331" data-name="Trazado 331" d="M365.259,189.088l-94.612-16.806,7.183-48.086L372.442,141Z" transform="translate(-224.486 -116.533)" fill="#2e2e2e"/>
      <path id="Trazado_332" data-name="Trazado 332" d="M366.651,155.257l-122.566-18.31a1.249,1.249,0,0,1-.042-2.463L320.2,120.5a1.257,1.257,0,0,1,.411-.007L443.179,138.8a1.249,1.249,0,0,1,.042,2.463L367.062,155.25A1.306,1.306,0,0,1,366.651,155.257Z" transform="translate(-243.021 -119.028)" fill="#2e2e2e"/>
      <path id="Trazado_333" data-name="Trazado 333" d="M366.651,154.388,244.085,136.08a1.249,1.249,0,0,1-.042-2.463L320.2,119.63a1.257,1.257,0,0,1,.411-.007l122.566,18.308a1.249,1.249,0,0,1,.042,2.463l-76.158,13.987A1.257,1.257,0,0,1,366.651,154.388Z" transform="translate(-243.021 -119.61)"/>
      <path id="Trazado_334" data-name="Trazado 334" d="M352.24,163.581l-6.846.271a1.222,1.222,0,0,0-1.13.852l-3.384,11.19a1.187,1.187,0,0,0,1.215,1.5h0a1.225,1.225,0,0,0,1.155-.872c.413-1.514.7-3.061,1-4.6a.754.754,0,0,1,.9-.526.726.726,0,0,1,.545.859c-.159.819-.312,1.639-.483,2.458a2.132,2.132,0,0,0,2.227,2.51h0a2.161,2.161,0,0,0,2.125-2.286l-.007-.08c-.119-1.679-.2-3.362-.251-5.044a.743.743,0,0,1,1.48-.048c.053,1.621.127,3.242.239,4.859.022.327.058.792.1,1.231a1.343,1.343,0,0,0,1.405,1.206h0a1.2,1.2,0,0,0,1.168-1.373c-.179-1.135-.319-2.277-.526-3.4a.725.725,0,0,1,.49-.891.748.748,0,0,1,.926.468c.249,1.36.4,2.747.637,4.114a1.211,1.211,0,0,0,1.25.961l.827-.027a1.183,1.183,0,0,0,1.088-1.649l-4.966-10.978A1.228,1.228,0,0,0,352.24,163.581Z" transform="translate(-177.4 -90.11)" fill="#b03838"/>
      <path id="Trazado_335" data-name="Trazado 335" d="M303.471,128.441l70.3,10.5v46.308" transform="translate(-202.465 -113.685)" fill="none" stroke="#d64d4d" stroke-linecap="round" stroke-miterlimit="10" stroke-width="1"/>
      <path id="Trazado_336" data-name="Trazado 336" d="M353.1,168.183l-.107-3.327a5.229,5.229,0,0,0-10.445.333l.105,3.328Z" transform="translate(-176.249 -92.511)" fill="#d64d4d"/>
    </g>
    <g id="Grupo_27" data-name="Grupo 27" transform="translate(365.893 230.164)">
      <line id="Línea_34" data-name="Línea 34" x2="102.597" fill="none" stroke="#2e2e2e" stroke-linecap="round" stroke-miterlimit="10" stroke-width="0.5"/>
      <line id="Línea_35" data-name="Línea 35" x2="102.597" transform="translate(0 5.36)" fill="none" stroke="#2e2e2e" stroke-linecap="round" stroke-miterlimit="10" stroke-width="0.5"/>
      <line id="Línea_36" data-name="Línea 36" x2="102.597" transform="translate(0 10.721)" fill="none" stroke="#2e2e2e" stroke-linecap="round" stroke-miterlimit="10" stroke-width="0.5"/>
      <line id="Línea_37" data-name="Línea 37" x2="102.597" transform="translate(0 16.081)" fill="none" stroke="#2e2e2e" stroke-linecap="round" stroke-miterlimit="10" stroke-width="0.5"/>
    </g>
    <line id="Línea_38" data-name="Línea 38" x2="101.987" transform="translate(368.134 269.359)" fill="none" stroke="#d64d4d" stroke-linecap="round" stroke-miterlimit="10" stroke-width="1" stroke-dasharray="5"/>
  </g>
</svg>
